<?xml version="1.0" standalone="no"?>
<!DOCTYPE svg PUBLIC "-//W3C//DTD SVG 20010904//EN"
 "http://www.w3.org/TR/2001/REC-SVG-20010904/DTD/svg10.dtd">
<svg version="1.0" xmlns="http://www.w3.org/2000/svg"
 width="677.000000pt" height="368.000000pt" viewBox="0 0 677.000000 368.000000"
 preserveAspectRatio="xMidYMid meet">

<g transform="translate(0.000000,368.000000) scale(0.100000,-0.100000)"
fill="currentColor" stroke="none">
<path d="M1610 3428 c-18 -13 -43 -36 -54 -51 -21 -28 -21 -37 -23 -635 l-3
-607 23 -39 c12 -22 38 -49 57 -60 34 -20 52 -21 488 -24 l452 -3 0 56 0 55
80 0 80 0 0 -55 0 -55 70 0 70 0 0 49 0 50 -37 3 -38 3 -3 78 -3 77 -75 0 -75
0 3 78 3 77 153 3 152 3 0 74 0 75 -155 0 -155 0 0 75 0 75 155 0 155 0 0 74
0 75 -37 3 -38 3 -3 77 -3 78 -190 2 -191 3 -1 72 c-2 53 2 74 11 78 8 3 76 5
153 5 l139 0 0 75 0 75 -75 0 -75 0 0 50 0 50 -75 0 -75 0 0 -50 0 -50 -155 0
-155 0 0 50 0 50 -259 0 c-251 0 -259 -1 -291 -22z m704 -308 l1 -75 -157 -3
-158 -3 0 74 c0 41 3 77 7 81 4 3 74 5 156 4 l150 -3 1 -75z m156 -310 l0 -80
-155 0 -155 0 0 80 0 80 155 0 155 0 0 -80z m0 -310 l0 -80 -235 0 -235 0 0
80 0 80 235 0 235 0 0 -80z m8 -307 l-3 -78 -115 0 -115 0 -3 78 -3 77 121 0
121 0 -3 -77z"/>
<path d="M3470 2940 l0 -510 155 0 155 0 0 510 0 510 -155 0 -155 0 0 -510z"/>
<path d="M4400 2730 l0 -720 170 0 c122 0 180 4 203 14 42 17 83 66 97 114 8
25 10 221 8 617 l-3 580 -24 38 c-42 68 -75 77 -276 77 l-175 0 0 -720z"/>
<path d="M730 1315 c0 -184 -2 -205 -17 -214 -15 -9 -14 -10 10 -11 15 0 27
-4 27 -10 0 -5 -6 -10 -12 -10 -10 0 -12 -22 -9 -87 6 -153 30 -173 206 -173
178 0 205 23 205 175 l0 85 -60 0 -60 0 0 -58 c0 -32 -5 -63 -12 -70 -7 -7
-37 -12 -68 -12 -73 0 -90 17 -90 88 0 34 -4 52 -12 52 -9 0 -9 3 0 12 9 9 12
73 12 225 l0 213 -60 0 -60 0 0 -205z"/>
<path d="M1022 1308 l3 -213 58 -3 57 -3 0 216 0 215 -60 0 -60 0 2 -212z"/>
<path d="M1540 1315 c0 -184 -2 -205 -17 -214 -16 -9 -16 -10 5 -11 12 0 22
-4 22 -10 0 -5 -3 -10 -7 -10 -5 0 -7 -58 -5 -130 l3 -130 60 0 60 0 -1 138
c-3 325 0 343 35 210 13 -53 21 -68 36 -68 10 0 21 -4 24 -10 3 -5 -3 -10 -14
-10 -12 0 -21 -3 -21 -6 0 -4 15 -62 32 -130 l33 -124 87 0 88 0 0 130 c0 94
-3 130 -12 130 -9 0 -9 3 0 12 9 9 12 73 12 225 l0 213 -60 0 -60 0 0 -215 c0
-184 2 -215 15 -215 8 0 15 -4 15 -10 0 -5 -18 -10 -40 -10 -22 0 -40 5 -40
10 0 6 9 10 20 10 11 0 20 1 20 3 0 1 -18 70 -40 152 -22 83 -47 178 -56 213
l-17 62 -88 0 -89 0 0 -205z"/>
<path d="M2407 1513 c-4 -3 -7 -98 -7 -210 0 -174 -2 -203 -15 -203 -24 0 -17
-20 8 -21 12 0 18 -2 12 -5 -6 -2 -9 -54 -7 -134 l3 -130 59 0 60 0 0 355 0
355 -53 0 c-30 0 -57 -3 -60 -7z"/>
<path d="M2939 1513 c0 -5 0 -97 1 -205 1 -172 0 -199 -14 -204 -25 -9 -19
-22 8 -17 13 3 27 0 30 -6 5 -7 -3 -11 -19 -11 -23 0 -24 -2 -15 -20 7 -13 10
-64 8 -131 l-3 -109 168 0 167 0 38 34 37 34 3 274 c2 260 1 275 -18 306 -32
53 -69 62 -240 62 -82 0 -150 -3 -151 -7z m271 -133 c18 -18 20 -33 20 -154 0
-98 3 -136 13 -140 10 -5 10 -7 0 -12 -8 -3 -13 -25 -13 -53 0 -26 -7 -56 -16
-69 -13 -19 -24 -22 -90 -22 l-76 0 4 70 c2 39 1 70 -2 70 -6 0 -1 299 5 318
3 8 26 12 70 12 52 0 69 -4 85 -20z"/>
<path d="M3760 1311 c0 -191 -2 -210 -17 -214 -12 -3 -8 -5 9 -6 30 -1 50 -21
21 -21 -16 0 -18 -8 -13 -95 5 -91 7 -97 38 -128 l32 -32 121 -3 c192 -6 219
15 219 164 0 83 -2 94 -17 94 -17 1 -17 1 0 14 15 12 17 35 17 225 l0 212 -57
-3 -58 -3 -3 -203 c-1 -128 1 -210 8 -222 8 -14 8 -20 0 -20 -7 0 -10 -21 -9
-54 3 -73 -9 -86 -81 -86 -73 0 -90 17 -90 88 0 40 -3 52 -16 52 -8 0 -12 5
-9 10 4 6 11 8 16 5 5 -4 9 81 9 214 l0 221 -60 0 -60 0 0 -209z"/>
<path d="M4580 1315 c0 -174 -2 -207 -15 -211 -22 -9 -18 -23 4 -17 10 3 22 0
25 -6 4 -7 -1 -11 -14 -11 -18 0 -19 -3 -10 -20 7 -13 10 -64 8 -131 l-3 -109
183 0 182 0 0 60 0 60 -120 0 -120 0 0 70 c0 56 -3 70 -15 70 -8 0 -15 5 -15
10 0 6 7 10 15 10 13 0 15 31 15 215 l0 215 -60 0 -60 0 0 -205z"/>
<path d="M5360 1513 c-1 -5 0 -97 0 -205 1 -179 -1 -198 -17 -207 -13 -8 24
-10 135 -11 l152 0 0 55 0 54 -77 3 -78 3 0 95 0 95 123 3 122 3 0 59 0 60
-180 0 c-99 0 -180 -3 -180 -7z"/>
<path d="M5351 1041 c6 -16 9 -75 7 -130 l-3 -101 183 0 182 0 0 60 0 60 -125
0 -125 0 0 70 0 70 -64 0 -65 0 10 -29z"/>
<path d="M4630 555 c-17 -20 9 -21 36 0 19 14 19 14 -2 15 -12 0 -27 -7 -34
-15z"/>
<path d="M955 508 c-3 -7 -16 -46 -29 -85 l-25 -73 24 0 c12 0 25 7 29 15 3 9
18 15 35 15 16 0 31 -6 35 -15 5 -15 46 -22 46 -8 0 5 -12 43 -26 85 -24 74
-27 78 -55 78 -16 0 -32 -6 -34 -12z m48 -55 c6 -33 1 -43 -20 -43 -11 0 -14
6 -9 23 3 12 6 28 6 35 0 23 18 12 23 -15z"/>
<path d="M1235 495 c-27 -26 -34 -80 -14 -116 14 -28 56 -41 101 -34 38 7 38
7 38 56 l0 49 -35 0 c-28 0 -35 -4 -35 -20 0 -11 7 -20 15 -20 8 0 15 -7 15
-15 0 -27 -49 -18 -62 11 -19 40 7 79 52 79 25 0 36 5 38 18 3 14 -4 17 -43
17 -35 0 -51 -6 -70 -25z"/>
<path d="M1520 435 l0 -85 50 0 c38 0 50 4 50 15 0 10 -10 15 -30 15 -23 0
-30 4 -30 20 0 15 7 20 25 20 16 0 25 6 25 15 0 9 -9 15 -25 15 -18 0 -25 5
-25 20 0 16 7 20 30 20 20 0 30 5 30 15 0 11 -12 15 -50 15 l-50 0 0 -85z"/>
<path d="M1770 435 c0 -80 1 -85 21 -85 19 0 21 5 17 55 -1 30 -1 55 2 55 3 0
18 -25 33 -55 25 -51 29 -55 62 -55 l35 0 0 85 c0 78 -2 85 -20 85 -16 0 -19
-8 -22 -62 l-3 -63 -33 63 c-29 55 -36 62 -62 62 l-30 0 0 -85z"/>
<path d="M2100 435 l0 -85 54 0 c47 0 57 4 75 26 29 37 27 89 -4 119 -19 20
-34 25 -75 25 l-50 0 0 -85z m90 35 c11 -11 20 -27 20 -36 0 -27 -20 -54 -40
-54 -18 0 -20 7 -20 55 0 59 8 67 40 35z"/>
<path d="M2400 435 l0 -85 50 0 c37 0 50 4 50 14 0 9 -12 16 -27 18 -17 2 -28
9 -28 18 0 9 11 16 28 18 15 2 27 9 27 17 0 8 -12 15 -27 17 -17 2 -28 9 -28
18 0 9 11 16 28 18 15 2 27 9 27 18 0 10 -13 14 -50 14 l-50 0 0 -85z"/>
<path d="M2800 455 c0 -57 3 -69 25 -90 26 -27 54 -31 88 -14 33 18 37 28 37
102 0 60 -2 67 -20 67 -17 0 -19 -8 -22 -67 -3 -65 -4 -68 -28 -68 -24 0 -25
3 -28 68 -3 64 -4 67 -27 67 -24 0 -25 -3 -25 -65z"/>
<path d="M3127 514 c-4 -4 -7 -43 -7 -86 0 -71 2 -78 20 -78 17 0 20 7 20 52
0 58 11 55 29 -9 9 -35 16 -43 35 -43 19 0 26 9 38 53 l16 52 1 -52 c1 -50 3
-53 26 -53 25 0 25 1 25 85 l0 85 -34 0 c-32 0 -34 -2 -50 -61 -10 -33 -20
-58 -24 -54 -3 3 -13 29 -22 58 -13 43 -20 53 -41 55 -13 2 -28 0 -32 -4z"/>
<path d="M3650 435 c0 -77 2 -85 19 -85 15 0 21 8 23 33 2 27 8 33 31 35 25 3
27 1 27 -32 0 -32 3 -36 25 -36 25 0 25 1 25 85 0 84 0 85 -25 85 -22 0 -25
-4 -25 -35 0 -32 -2 -35 -30 -35 -28 0 -30 3 -30 35 0 28 -4 35 -20 35 -18 0
-20 -7 -20 -85z"/>
<path d="M3980 500 c-27 -27 -28 -110 -2 -133 26 -23 69 -31 102 -17 50 21 63
106 22 153 -22 25 -96 23 -122 -3z m88 -22 c14 -14 16 -67 3 -86 -14 -23 -53
-10 -64 21 -16 48 30 96 61 65z"/>
<path d="M4290 435 c0 -78 2 -85 20 -85 16 0 20 7 20 30 0 17 4 30 10 30 5 0
16 -13 25 -30 11 -21 23 -30 41 -30 l25 0 -22 31 c-21 30 -21 33 -5 59 28 49
0 80 -73 80 l-41 0 0 -85z m75 30 c0 -11 -8 -21 -17 -23 -14 -3 -18 3 -18 23
0 20 4 26 18 23 9 -2 17 -12 17 -23z"/>
<path d="M4605 508 c-11 -31 -45 -144 -45 -150 0 -15 41 -8 46 7 4 9 19 15 35
15 17 0 32 -6 35 -15 6 -15 55 -22 53 -7 0 4 -12 41 -27 82 -26 71 -29 75 -60
78 -20 2 -34 -2 -37 -10z m49 -50 c9 -36 7 -48 -8 -48 -20 0 -25 11 -19 43 6
33 19 35 27 5z"/>
<path d="M4880 435 c0 -78 2 -85 20 -85 16 0 20 7 20 30 0 17 4 30 8 30 4 0
16 -13 25 -30 13 -21 26 -30 43 -30 l25 0 -22 31 c-18 26 -20 35 -11 50 18 29
14 67 -7 79 -11 5 -38 10 -60 10 l-41 0 0 -85z m77 39 c3 -9 0 -20 -8 -25 -23
-14 -29 -11 -29 16 0 28 27 35 37 9z"/>
<path d="M5150 435 c0 -78 2 -85 20 -85 18 0 20 7 20 85 0 78 -2 85 -20 85
-18 0 -20 -7 -20 -85z"/>
<path d="M5360 500 c-27 -27 -28 -110 -2 -133 47 -43 121 -26 143 31 13 34 -4
98 -31 112 -32 17 -88 12 -110 -10z m81 -20 c36 -20 22 -100 -17 -100 -41 0
-56 79 -20 102 14 10 14 10 37 -2z"/>
</g>
</svg>
